<?xml version="1.0" encoding="UTF-8" standalone="no"?>
<svg
   xmlns:dc="http://purl.org/dc/elements/1.1/"
   xmlns:cc="http://creativecommons.org/ns#"
   xmlns:rdf="http://www.w3.org/1999/02/22-rdf-syntax-ns#"
   xmlns:svg="http://www.w3.org/2000/svg"
   xmlns="http://www.w3.org/2000/svg"
   xmlns:xlink="http://www.w3.org/1999/xlink"
   xmlns:sodipodi="http://sodipodi.sourceforge.net/DTD/sodipodi-0.dtd"
   xmlns:inkscape="http://www.inkscape.org/namespaces/inkscape"
   sodipodi:docname="theme_icon.svg"
   inkscape:version="1.0 (4035a4fb49, 2020-05-01)"
   id="svg16"
   version="1.1"
   viewBox="0 0 39.687499 39.687501"
   height="150"
   width="150">
  <defs
     id="defs10">
    <linearGradient
       id="linearGradient893"
       inkscape:collect="always">
      <stop
         id="stop889"
         offset="0"
         style="stop-color:#a02c2c;stop-opacity:1;" />
      <stop
         id="stop891"
         offset="1"
         style="stop-color:#a02c2c;stop-opacity:0;" />
    </linearGradient>
    <linearGradient
       id="linearGradient879"
       inkscape:collect="always">
      <stop
         id="stop875"
         offset="0"
         style="stop-color:#a02c2c;stop-opacity:1;" />
      <stop
         id="stop877"
         offset="1"
         style="stop-color:#a02c2c;stop-opacity:0;" />
    </linearGradient>
    <linearGradient
       gradientUnits="userSpaceOnUse"
       y2="75.06626"
       x2="134.84239"
       y1="75.06626"
       x1="15.207925"
       id="linearGradient881"
       xlink:href="#linearGradient879"
       inkscape:collect="always" />
    <linearGradient
       gradientUnits="userSpaceOnUse"
       y2="75.004132"
       x2="134.78427"
       y1="75.004132"
       x1="15.227611"
       id="linearGradient895"
       xlink:href="#linearGradient893"
       inkscape:collect="always" />
  </defs>
  <sodipodi:namedview
     showguides="false"
     inkscape:window-maximized="1"
     inkscape:window-y="0"
     inkscape:window-x="0"
     inkscape:window-height="1051"
     inkscape:window-width="1920"
     units="px"
     showgrid="false"
     inkscape:document-rotation="0"
     inkscape:current-layer="layer1"
     inkscape:document-units="mm"
     inkscape:cy="69.591091"
     inkscape:cx="41.572994"
     inkscape:zoom="3.959798"
     inkscape:pageshadow="2"
     inkscape:pageopacity="0.0"
     borderopacity="1.0"
     bordercolor="#666666"
     pagecolor="#ffffff"
     id="base" />
  <metadata
     id="metadata13">
    <rdf:RDF>
      <cc:Work
         rdf:about="">
        <dc:format>image/svg+xml</dc:format>
        <dc:type
           rdf:resource="http://purl.org/dc/dcmitype/StillImage" />
        <dc:title></dc:title>
      </cc:Work>
    </rdf:RDF>
  </metadata>
  <g
     id="layer1"
     inkscape:groupmode="layer"
     inkscape:label="Layer 1">
    <circle
       r="15.875"
       cy="19.84375"
       cx="19.84375"
       id="path38"
       style="fill:#a02c2c;fill-opacity:1;stroke-width:0.264583" />
    <path
       transform="scale(0.26458333)"
       id="path865"
       d="M 69.251086,134.61455 C 45.453662,132.16696 25.54817,116.20984 18.103574,93.612452 16.065566,87.426265 15.207925,81.860635 15.207925,74.821248 c 0,-16.408718 6.583669,-31.723926 18.547869,-43.14683 9.585311,-9.151642 22.006571,-14.88276 35.209767,-16.245641 3.644923,-0.376241 12.194158,-0.160908 15.437813,0.388839 8.866945,1.502804 17.519786,4.993207 24.622466,9.932262 10.11563,7.034198 17.9887,17.197764 22.21888,28.682976 5.21177,14.150291 4.74437,30.153418 -1.29384,44.298617 -6.22487,14.582509 -18.88201,26.692249 -33.691618,32.234529 -8.68881,3.25166 -18.275407,4.54672 -27.008176,3.64855 z"
       style="fill:url(#linearGradient881);fill-opacity:1;stroke-width:0.252538" />
    <path
       transform="scale(0.26458333)"
       id="path883"
       d="M 69.377355,134.65403 C 49.266155,132.5021 32.11586,121.19138 22.463385,103.71398 18.817586,97.112656 16.293042,89.112035 15.474011,81.563708 15.086163,77.989243 15.147082,70.998182 15.596117,67.550824 c 2.299079,-17.650633 11.973989,-33.058488 26.885926,-42.8174 7.524743,-4.924465 17.287774,-8.354499 26.483518,-9.304425 3.644605,-0.37649 12.193178,-0.161296 15.437813,0.388617 12.794377,2.168441 24.165206,8.033189 33.082496,17.063004 6.07321,6.149851 10.83069,13.602081 13.75885,21.552234 3.7317,10.13179 4.60254,21.829218 2.41382,32.423059 -2.51104,12.153877 -8.19815,22.513367 -17.08844,31.127817 -9.12322,8.84017 -20.305752,14.37096 -32.92434,16.28411 -3.113568,0.47206 -11.375914,0.69569 -14.268405,0.38619 z"
       style="fill:#a02c2c;fill-opacity:1;stroke-width:0.252538" />
    <path
       transform="scale(0.26458333)"
       id="path885"
       d="m 69.124817,134.64108 c -6.664131,-0.67346 -14.287618,-2.87331 -20.455589,-5.90273 -17.36603,-8.52937 -29.260835,-24.4235 -32.749044,-43.760068 -0.516835,-2.865025 -0.582946,-4.01516 -0.577896,-10.053652 0.0062,-7.444153 0.187516,-9.044442 1.687946,-14.89975 3.68462,-14.378946 12.755195,-26.958444 25.451809,-35.297762 7.380263,-4.847462 16.963916,-8.24044 26.24961,-9.293361 3.875554,-0.439456 12.464613,-0.176488 16.303066,0.499144 12.50776,2.201577 23.729401,8.078036 32.604461,17.074038 19.09126,19.351433 22.725,49.183875 8.83638,72.545241 -5.8386,9.82083 -14.91119,18.21428 -25.02586,23.15252 -5.747373,2.80602 -11.572729,4.6271 -17.80394,5.56573 -3.18956,0.48046 -11.368474,0.68923 -14.520943,0.37065 z"
       style="fill:#a02c2c;fill-opacity:1;stroke-width:0.252538" />
    <path
       transform="scale(0.26458333)"
       id="path887"
       d="M 68.872279,134.64498 C 60.222911,133.67159 50.719042,130.40816 43.502265,125.93344 27.829034,116.21537 17.343351,99.575155 15.442013,81.403347 15.008593,77.260991 15.263065,68.661952 15.928936,64.949373 17.705475,55.044237 21.44542,46.553268 27.664052,38.3066 c 1.961966,-2.601808 8.049305,-8.689146 10.651112,-10.651112 8.976233,-6.768782 19.449853,-11.026151 29.978951,-12.185993 3.500197,-0.385567 10.402743,-0.333629 14.090502,0.106025 19.895853,2.37198 37.393443,14.858711 46.336903,33.067198 2.84073,5.783601 4.55746,11.269373 5.59327,17.873132 0.62296,3.971634 0.62664,12.826962 0.007,16.868807 -2.09322,13.654207 -7.97965,25.120663 -17.77615,34.627033 -9.02823,8.76085 -20.243396,14.34276 -32.647362,16.24894 -3.135635,0.48187 -12.117886,0.71163 -15.026019,0.38435 z"
       style="fill:url(#linearGradient895);fill-opacity:1;stroke-width:0.252538" />
    <path
       transform="scale(0.26458333)"
       id="path897"
       d="M 69.882431,134.74773 C 55.800882,133.27512 43.453671,127.64383 33.465486,118.13878 23.887989,109.02455 17.310734,96.019458 15.594862,82.803511 15.145029,79.338822 15.083477,71.880315 15.47505,68.285551 17.149572,52.912928 25.138436,38.3724 37.431281,28.323021 45.458935,21.760427 56.660138,17.003344 67.475854,15.563272 c 3.49586,-0.465461 10.953192,-0.459334 14.908763,0.01225 19.895853,2.37198 37.393443,14.858711 46.336903,33.067198 2.84073,5.783601 4.55746,11.269373 5.59327,17.873132 0.62296,3.971634 0.62664,12.826962 0.007,16.868807 -2.09322,13.654207 -7.97965,25.120661 -17.77615,34.627031 -9.02695,8.75961 -20.203859,14.32368 -32.647357,16.25246 -2.551128,0.39544 -11.805539,0.71473 -14.015867,0.48358 z"
       style="fill:#a02c2c;fill-opacity:1;stroke-width:0.252538" />
    <path
       transform="scale(0.26458333)"
       id="path899"
       d="M 68.493471,134.63849 C 61.87006,133.82073 54.413261,131.59818 48.550414,128.69432 31.128585,120.0653 19.435616,104.36917 15.831299,84.773617 15.268866,81.715842 15.0437,72.252751 15.442651,68.439822 16.594412,57.431985 21.327595,46.116084 28.47183,37.290193 c 2.429539,-3.00142 7.477046,-7.883121 10.47601,-10.131884 8.252346,-6.187993 18.368501,-10.297742 28.52639,-11.589019 4.220874,-0.53656 13.400661,-0.403975 17.178162,0.248107 19.307548,3.332917 35.554948,15.43539 44.091648,32.843266 9.31102,18.986888 7.90858,41.743976 -3.64178,59.094367 -2.77236,4.1645 -4.75558,6.55054 -8.40953,10.11761 -9.07194,8.85624 -20.235996,14.43489 -32.809481,16.3948 -3.120649,0.48644 -12.603398,0.71507 -15.389778,0.37105 z"
       style="fill:#353b48;fill-opacity:1;stroke-width:0.252538" />
    <path
       transform="scale(0.26458333)"
       id="path901"
       d="M 65.841821,134.16441 C 59.547846,132.98197 53.899825,131.15289 48.669228,128.60314 31.784701,120.3725 20.03185,105.00766 16.218137,86.178901 15.505376,82.659918 15.138396,74.905091 15.459303,70.143616 16.173392,59.548259 20.011079,49.148001 26.648017,39.821829 28.628576,37.038763 34.717081,30.659365 37.683819,28.258766 46.726952,20.94132 59.085284,16.12179 70.468256,15.473417 c 4.543497,-0.258797 3.8741,-0.258694 8.887095,-0.0014 4.69031,0.240757 8.307821,0.86175 12.603411,2.163539 22.882418,6.934569 39.224198,26.213101 42.311508,49.915239 0.5117,3.928423 0.5057,11.33775 -0.0124,15.368724 -1.61225,12.542983 -7.50181,24.623231 -16.42222,33.684131 -7.87284,7.99683 -17.49547,13.64682 -27.689322,16.25798 -5.410667,1.38594 -7.121161,1.58165 -14.708033,1.68286 -6.122539,0.0817 -7.409827,0.0307 -9.596449,-0.38011 z"
       style="fill:#353b48;fill-opacity:1;stroke-width:0.252538" />
    <path
       transform="scale(0.26458333)"
       id="path903"
       d="m 67.35705,134.4679 c -1.62528,-0.22807 -6.672252,-1.37823 -8.712566,-1.9855 -14.143123,-4.20952 -25.548331,-12.51586 -33.456417,-24.36609 -4.145599,-6.21216 -7.378892,-14.038304 -8.954529,-21.674317 -0.774404,-3.753 -1.153519,-11.603653 -0.791698,-16.39437 0.739584,-9.792497 4.026945,-19.360099 9.561056,-27.826682 2.333464,-3.569943 3.820066,-5.383316 7.322999,-8.932664 5.56833,-5.642116 9.771275,-8.706771 16.343333,-11.917049 5.768377,-2.817701 11.237078,-4.541438 17.677669,-5.57201 3.767968,-0.602919 13.655548,-0.592034 17.67767,0.01946 10.398899,1.580977 21.155203,6.423675 29.105623,13.103914 2.32501,1.953562 6.52783,6.204095 8.4047,8.500122 6.79448,8.311854 11.50842,19.59896 12.86455,30.803029 0.33614,2.777089 0.33332,11.159989 -0.005,13.902846 -1.36291,11.059981 -5.96343,21.932421 -12.89038,30.463861 -2.18408,2.68998 -6.219,6.67763 -9.09414,8.98759 -8.80485,7.07405 -20.120224,11.8405 -30.405981,12.80811 -2.642521,0.24859 -13.040643,0.30521 -14.647212,0.0797 z"
       style="fill:#353b48;fill-opacity:1;stroke-width:0;stroke-miterlimit:4;stroke-dasharray:none" />
    <path
       transform="scale(0.26458333)"
       id="path905"
       d="M 67.230781,134.47617 C 46.143624,130.97099 29.608043,118.83838 20.882489,100.46917 18.420947,95.287085 16.336027,88.354726 15.694764,83.21998 15.206032,79.306593 15.263484,69.43516 15.794606,66.064958 17.395952,55.903725 21.927124,45.582135 28.257671,37.675255 30.105596,35.367188 35.130078,30.327078 37.61106,28.292773 44.248517,22.850326 54.311975,18.1512 63.190171,16.348621 c 8.640135,-1.754245 20.087105,-1.335311 28.031733,1.025901 8.044918,2.39102 15.175766,6.096147 21.339476,11.087814 3.14197,2.54452 7.99931,7.572434 10.27879,10.639756 5.65788,7.613356 9.37077,16.303471 11.20521,26.226089 0.63994,3.461451 0.78256,13.468682 0.25013,17.5514 -2.22922,17.094104 -11.7568,32.220119 -26.53236,42.122829 -7.31593,4.90321 -17.165372,8.51128 -25.632619,9.38981 -2.298226,0.23846 -13.58758,0.30207 -14.89975,0.0839 z"
       style="fill:#353b48;fill-opacity:1;stroke-width:0;stroke-miterlimit:4;stroke-dasharray:none" />
    <path
       transform="scale(0.26458333)"
       id="path907"
       d="M 64.702361,134.01351 C 47.580589,130.46025 34.299661,121.74857 25.123279,108.05146 21.338713,102.40243 17.942214,94.290348 16.353788,87.106703 14.916994,80.608809 14.915902,69.927264 16.35132,62.950531 18.148752,54.214257 22.848431,44.291264 28.440631,37.424925 30.38442,35.038259 35.4526,30.009754 37.93567,28.004217 c 5.317362,-4.294751 13.028336,-8.23789 20.579116,-10.523481 9.666978,-2.926157 22.983076,-2.970762 32.81756,-0.109931 6.831856,1.987374 13.858244,5.491319 19.587534,9.767989 2.72492,2.03404 7.84947,6.940437 10.26217,9.825303 5.65417,6.760719 10.45281,16.741271 12.3018,25.586164 1.03034,4.928759 1.24394,7.674801 1.10631,14.222819 -0.19699,9.372021 -1.70383,15.816933 -5.59034,23.91044 -3.09375,6.4426 -6.60562,11.39909 -11.63233,16.4173 -6.95405,6.9423 -14.77168,11.78737 -23.845474,14.77855 -6.827447,2.25067 -10.536336,2.76767 -19.725244,2.74962 -5.514167,-0.0108 -6.50342,-0.0778 -9.094411,-0.61548 z"
       style="fill:#353b48;fill-opacity:1;stroke-width:0;stroke-miterlimit:4;stroke-dasharray:none" />
    <path
       transform="scale(0.26458333)"
       id="path909"
       d="M 65.841821,134.2708 C 49.987621,131.36095 36.062884,122.95132 27.046074,110.84069 21.971235,104.02459 18.025779,95.209139 16.227155,86.667653 15.059346,81.121845 14.948057,71.064796 15.986717,64.939658 17.555929,55.685782 21.553879,46.49628 27.386986,38.735533 29.60763,35.781042 35.394678,29.95555 38.470461,27.578429 c 6.972362,-5.388596 16.249262,-9.583766 25.098517,-11.349972 7.814148,-1.559611 18.377988,-1.268293 26.235028,0.72348 7.961494,2.018252 17.148414,6.706761 23.246264,11.863643 2.51844,2.129808 7.0044,6.666473 8.76065,8.859675 4.56038,5.694954 8.57244,13.565578 10.72202,21.033808 1.57323,5.465831 1.92448,7.980634 2.05997,14.748684 0.12847,6.417216 -0.078,9.341666 -0.9685,13.714982 -1.79587,8.820193 -6.01523,17.768661 -11.84806,25.127541 -2.13843,2.69791 -6.63806,7.16357 -9.59378,9.52134 -8.52743,6.80232 -19.472651,11.4462 -29.600145,12.55887 -3.386706,0.37208 -14.51292,0.29919 -16.740604,-0.10968 z"
       style="fill:#718093;fill-opacity:1;stroke-width:0;stroke-miterlimit:4;stroke-dasharray:none" />
    <path
       id="path911"
       d="m 18.489726,35.652003 c 0,0 19.833092,-13.366649 -0.144016,-31.6955649"
       style="fill:none;stroke:#000000;stroke-width:0.265;stroke-linecap:butt;stroke-linejoin:miter;stroke-opacity:1;stroke-miterlimit:4;stroke-dasharray:none" />
    <path
       transform="scale(0.26458333)"
       id="path913"
       d="m 71.498763,134.41867 c 0.138896,-0.14604 0.991212,-0.85048 1.894036,-1.56544 4.982602,-3.94578 11.006631,-10.05815 15.183487,-15.40616 C 100.93083,101.62842 105.81679,84.088189 102.69096,66.776493 99.783348,50.673396 90.365113,34.792554 74.277222,18.865805 l -3.536073,-3.500655 5.808377,0.129535 c 6.400678,0.142745 9.822099,0.596692 14.560537,1.93186 7.547429,2.126669 16.293997,6.739042 22.056007,11.630917 2.86986,2.436466 7.65436,7.419701 9.45337,9.846023 5.13908,6.931081 9.36428,16.314246 10.97555,24.374153 0.95108,4.757462 1.22188,14.919021 0.53638,20.126981 -1.27224,9.665521 -5.2946,19.291721 -11.58671,27.728991 -1.94373,2.60641 -7.31007,8.10988 -10.13514,10.39412 -7.70923,6.2334 -18.100601,10.91267 -27.652505,12.45203 -2.962093,0.47737 -13.630746,0.83054 -13.258252,0.43891 z"
       style="fill:#f5f6fa;fill-opacity:1;stroke-width:0;stroke-miterlimit:4;stroke-dasharray:none" />
  </g>
</svg>
